<svg xmlns:dc="http://purl.org/dc/elements/1.1/" xmlns:cc="http://creativecommons.org/ns#" xmlns:rdf="http://www.w3.org/1999/02/22-rdf-syntax-ns#" xmlns:svg="http://www.w3.org/2000/svg" xmlns="http://www.w3.org/2000/svg" xmlns:sodipodi="http://sodipodi.sourceforge.net/DTD/sodipodi-0.dtd" xmlns:inkscape="http://www.inkscape.org/namespaces/inkscape" viewBox="0 0 100 124.999995" version="1.1" x="0px" y="0px"><g transform="translate(-164.71426,-401.93367)"><path style="color:#000000;font-style:normal;font-variant:normal;font-weight:normal;font-stretch:normal;font-size:medium;line-height:normal;font-family:sans-serif;text-indent:0;text-align:start;text-decoration:none;text-decoration-line:none;text-decoration-style:solid;text-decoration-color:#000000;letter-spacing:normal;word-spacing:normal;text-transform:none;direction:ltr;block-progression:tb;writing-mode:lr-tb;baseline-shift:baseline;text-anchor:start;white-space:normal;clip-rule:nonzero;display:inline;overflow:visible;visibility:visible;opacity:1;isolation:auto;mix-blend-mode:normal;color-interpolation:sRGB;color-interpolation-filters:linearRGB;solid-color:#000000;solid-opacity:1;fill:#000000;fill-opacity:1;fill-rule:nonzero;stroke:none;stroke-width:2;stroke-linecap:butt;stroke-linejoin:round;stroke-miterlimit:4;stroke-dasharray:none;stroke-dashoffset:0;stroke-opacity:1;color-rendering:auto;image-rendering:auto;shape-rendering:auto;text-rendering:auto;enable-background:accumulate" d="m 173.31582,418.05242 c -3.12064,0 -5.60156,2.4809 -5.60156,5.6015 l 0,15.7774 28.00195,0 c 1.25332,-2.881 3.59172,-5.1771 6.49805,-6.4199 l 0,-14.959 -28.89844,0 z m 30.89844,0 0,15.543 a 1.0001,1.0001 0 0 1 -0.66406,0.9414 c -2.90165,1.0317 -5.19367,3.3154 -6.23047,6.2148 a 1.0000999,1.0000999 0 0 1 -0.004,0.016 c -0.0955,0.268 -0.18,0.5413 -0.2539,0.8184 -10e-4,0 -0.003,0.01 -0.004,0.014 -0.0697,0.2627 -0.12668,0.5303 -0.17578,0.8007 -0.004,0.022 -0.01,0.044 -0.0137,0.066 -0.0397,0.2271 -0.0673,0.4574 -0.0918,0.6895 -0.007,0.069 -0.0194,0.1358 -0.0254,0.2051 -0.0244,0.2873 -0.0371,0.5788 -0.0371,0.873 l 0,15.3946 c 0,0.2942 0.0127,0.5856 0.0371,0.873 0.006,0.069 0.0184,0.1363 0.0254,0.2051 0.0245,0.2321 0.0521,0.4624 0.0918,0.6894 0.004,0.022 0.01,0.044 0.0137,0.066 0.0491,0.2704 0.10608,0.5381 0.17578,0.8008 0.001,0 0.003,0.01 0.004,0.014 0.0739,0.2771 0.1584,0.5504 0.2539,0.8184 a 1.0000999,1.0000999 0 0 1 0.004,0.012 c 0.001,0 0.001,0 0.002,0.01 1.03719,2.8983 3.32766,5.1815 6.22852,6.2129 a 1.0001,1.0001 0 0 1 0.66406,0.9414 l 0,15.543 21,0 0,-15.543 a 1.0001,1.0001 0 0 1 0.66406,-0.9414 c 2.90165,-1.0317 5.19367,-3.3154 6.23047,-6.2148 a 1.0000999,1.0000999 0 0 1 0.004,-0.016 c 0.0955,-0.268 0.18,-0.5413 0.2539,-0.8184 0.001,0 0.003,-0.01 0.004,-0.014 0.0697,-0.2627 0.12668,-0.5304 0.17578,-0.8008 0.004,-0.022 0.01,-0.044 0.0137,-0.066 0.0397,-0.227 0.0673,-0.4573 0.0918,-0.6894 0.007,-0.069 0.0194,-0.1358 0.0254,-0.2051 0.0244,-0.2874 0.0371,-0.5788 0.0371,-0.873 l 0,-15.3946 c 0,-0.2942 -0.0127,-0.5857 -0.0371,-0.873 -0.006,-0.069 -0.0184,-0.1363 -0.0254,-0.2051 -0.0245,-0.2321 -0.0521,-0.4624 -0.0918,-0.6895 -0.004,-0.022 -0.01,-0.044 -0.0137,-0.066 -0.0491,-0.2704 -0.10608,-0.538 -0.17578,-0.8007 -0.001,0 -0.003,-0.01 -0.004,-0.014 -0.0739,-0.2771 -0.1584,-0.5504 -0.2539,-0.8184 a 1.0000999,1.0000999 0 0 1 -0.006,-0.018 c -1.03719,-2.8983 -3.32766,-5.1815 -6.22852,-6.2129 a 1.0001,1.0001 0 0 1 -0.66406,-0.9414 l 0,-15.543 -21,0 z m 23,0 0,14.959 c 2.90632,1.2428 5.24473,3.5389 6.49805,6.4199 l 28.00195,0 0,-15.7774 c 0,-3.1206 -2.48288,-5.6015 -5.60351,-5.6015 l -28.89649,0 z m -59.5,23.3789 0,21 27.32813,0 c -0.21332,-0.8979 -0.32813,-1.8352 -0.32813,-2.8027 l 0,-15.3946 c 0,-0.9675 0.11481,-1.9048 0.32813,-2.8027 l -27.32813,0 z m 66.67188,0 c 0.21333,0.8979 0.32812,1.8352 0.32812,2.8027 l 0,15.3946 c 0,0.9675 -0.11479,1.9048 -0.32812,2.8027 l 27.32812,0 0,-21 -27.32812,0 z m -66.67188,23 0,15.7793 c 0,3.1206 2.48092,5.6016 5.60156,5.6016 l 28.89844,0 0,-14.961 c -2.90633,-1.2429 -5.24473,-3.5389 -6.49805,-6.4199 l -28.00195,0 z m 65.99805,0 c -1.25332,2.881 -3.59173,5.177 -6.49805,6.4199 l 0,14.961 28.89649,0 c 3.12063,0 5.60351,-2.481 5.60351,-5.6016 l 0,-15.7793 -28.00195,0 z"/></g><text x="0" y="114.999996" fill="#000000" font-size="5px" font-weight="bold" font-family="'Helvetica Neue', Helvetica, Arial-Unicode, Arial, Sans-serif">Created by Nunung Perdana</text><text x="0" y="119.999996" fill="#000000" font-size="5px" font-weight="bold" font-family="'Helvetica Neue', Helvetica, Arial-Unicode, Arial, Sans-serif">from the Noun Project</text></svg>