<?xml version="1.0" standalone="no"?>
<!DOCTYPE svg PUBLIC "-//W3C//DTD SVG 20010904//EN"
 "http://www.w3.org/TR/2001/REC-SVG-20010904/DTD/svg10.dtd">
<svg version="1.0" xmlns="http://www.w3.org/2000/svg"
 width="387.000000pt" height="305.000000pt" viewBox="0 0 387.000000 305.000000"
 preserveAspectRatio="xMidYMid meet">

<g transform="translate(0.000000,305.000000) scale(0.100000,-0.100000)"
fill="#000000" stroke="none">
<path d="M1677 2680 c-327 -40 -597 -273 -689 -595 -31 -109 -31 -303 0 -418
36 -132 102 -245 208 -357 51 -54 100 -116 109 -137 9 -21 39 -124 65 -230 54
-211 72 -255 125 -301 l36 -32 235 0 c256 0 274 3 311 57 28 40 46 96 97 295
50 196 68 239 127 303 21 23 39 45 39 49 0 3 -128 6 -285 6 l-285 0 0 500 0
500 345 0 c190 0 345 4 345 8 0 18 -99 130 -155 175 -157 127 -423 202 -628
177z"/>
<path d="M1810 1820 l0 -460 805 0 805 0 0 460 0 460 -805 0 -805 0 0 -460z
m1313 351 c26 -59 90 -125 152 -157 l55 -29 0 -167 0 -168 -47 -22 c-59 -27
-132 -100 -157 -156 l-19 -42 -491 0 -491 1 -20 42 c-25 56 -104 133 -160 158
l-45 20 0 167 0 167 55 29 c63 33 138 110 157 162 l12 34 491 0 491 0 17 -39z"/>
<path d="M2137 2135 c-24 -51 -93 -121 -149 -153 l-48 -27 0 -137 0 -136 54
-30 c57 -32 118 -96 144 -149 l16 -33 460 1 461 0 40 62 c30 45 59 74 108 107
l67 45 0 136 0 137 -54 30 c-57 32 -118 96 -144 150 l-16 32 -461 0 -461 0
-17 -35z m546 -66 c154 -38 236 -222 164 -366 -43 -84 -113 -132 -208 -140
-149 -14 -279 101 -279 246 0 82 16 127 63 178 74 81 160 108 260 82z"/>
<path d="M2549 2025 c-91 -29 -156 -128 -147 -224 20 -202 276 -269 393 -103
27 40 30 51 30 122 0 71 -3 82 -30 121 -54 76 -158 112 -246 84z m91 -53 c0
-10 14 -29 31 -41 41 -31 25 -51 -26 -32 -43 15 -78 1 -73 -32 2 -18 12 -23
45 -28 58 -7 83 -32 83 -81 0 -33 -5 -42 -30 -56 -16 -9 -30 -25 -30 -34 0
-12 -8 -18 -25 -18 -17 0 -25 6 -25 18 0 9 -14 25 -30 34 -17 9 -30 21 -30 26
0 14 37 21 48 10 5 -5 25 -8 43 -6 29 2 34 7 34 28 0 21 -6 25 -45 32 -53 9
-80 37 -80 81 0 32 24 67 47 67 7 0 13 11 13 25 0 20 5 25 25 25 17 0 25 -5
25 -18z"/>
<path d="M1520 450 l0 -110 250 0 250 0 0 110 0 110 -250 0 -250 0 0 -110z"/>
<path d="M1536 292 c-10 -16 36 -92 75 -126 46 -39 97 -56 168 -56 62 0 105
17 155 60 35 31 76 96 76 120 0 12 -466 14 -474 2z"/>
</g>
</svg>
